# xmcd
#
# Track frame offsets: 
#        150
#        8634
#        17189
#        26259
#        36625
#        43946
#        51319
#        63883
#        76983
#        93862
#        112631
#        124292
#        137207
#        148618
#        161736
#        182768
#        200072
#        222894
#        236098
#        248458
#        257361
#        264568
#        271342
#        287596
#
# Disc length: 4181 seconds
#
# Revision: 0
# Processed by: cddbd v1.5.2PL0 Copyright (c) Steve Scherf et al.
# Submitted via: ExactAudioCopy v1.0b6
#
DISCID=54105318
DTITLE=Disney Studio Chorus - Cinderella (Legacy Collection) (2015 Rem
DTITLE=aster)
DYEAR=2015
DGENRE=Soundtrack
TTITLE0=I'm In The Middle Of The Muddle (Demo Recording)
TTITLE1=I'm In The Middle Of A Muddle [feat. Kate Higgins]
TTITLE2=I Lost My Heart At The Ball (Demo Recording)
TTITLE3=I Lost My Heart At The Ball [feat. Jennifer Paz]
TTITLE4=The Mouse Song (Demo Recording)
TTITLE5=The Mouse Song
TTITLE6=Sing a Little, Dream A Little (Demo Recording)
TTITLE7=Sing A Little, Dream A Little [feat. Juliana Hansen]
TTITLE8=Dancing On A Cloud (Demo Recording)
TTITLE9=Dancing On A Cloud
TTITLE10=The Dress That My Mother Wore (Demo Recording)
TTITLE11=The Dress That My Mother Wore [feat. Juliana Hansen]
TTITLE12=The Face That I See In The Night (Demo Recording)
TTITLE13=The Face That I See In The Night
TTITLE14=Cinderella: Prologue
TTITLE15=Cat and Mice - The King's Plans
TTITLE16=Entanglements - Dress Building [feat. Oliver Wallace]
TTITLE17=The Palace at Evening - A Dress For The Ball [feat. Oliver Wa
TTITLE17=llace]
TTITLE18=Royal Fanfare and Reception at the Palace
TTITLE19=So This Is Love: Waltz
TTITLE20=Midnight Chase [feat. Oliver Wallace]
TTITLE21=A Perfect Fit [feat. Paul J. Smith]
TTITLE22=Cinderella: Finale
TTITLE23=Data
EXTD=
EXTT0=
EXTT1=
EXTT2=
EXTT3=
EXTT4=
EXTT5=
EXTT6=
EXTT7=
EXTT8=
EXTT9=
EXTT10=
EXTT11=
EXTT12=
EXTT13=
EXTT14=
EXTT15=
EXTT16=
EXTT17=
EXTT18=
EXTT19=
EXTT20=
EXTT21=
EXTT22=
EXTT23=
PLAYORDER=
